<?xml version="1.0" encoding="utf-8"?>
<!-- Generator: Adobe Illustrator 23.1.0, SVG Export Plug-In . SVG Version: 6.00 Build 0)  -->
<svg version="1.1" xmlns="http://www.w3.org/2000/svg" xmlns:xlink="http://www.w3.org/1999/xlink" x="0px" y="0px"
	 viewBox="0 0 600 600" style="enable-background:new 0 0 600 600;" xml:space="preserve">
<style type="text/css">
	.st0{display:none;}
	.st1{display:inline;fill:#191919;}
	.st2{fill:none;stroke:#F6F6F6;stroke-width:6;stroke-miterlimit:10;}
	.st3{display:inline;fill:#F6F6F6;}
	.st4{display:inline;fill:none;}
	.st5{font-family:'IBMPlexMono';}
	.st6{font-size:14px;}
	.st7{letter-spacing:1;}
	.st8{display:none;fill:#191919;}
	.st9{fill:#F6F6F6;}
</style>
<g id="Capa_1" class="st0">
	<title>be_perfil</title>
	<g>
		<g>
			<path class="st1" d="M215,281.6h88.4v-63.9c0-18,6.1-33.1,18.2-45.4c12.1-12.3,27.2-18.5,45.1-18.5h126.6v75.2h-94
				c-11.3,0-16.9,6.3-16.9,18.8v33.8h122.3v75.2H382.4v235.7h-79V356.8H215V281.6z"/>
			<path class="st1" d="M214.4,280.9h88.4V217c0-18,6.1-33.1,18.2-45.4s27.2-18.5,45.1-18.5h126.6v75.2h-94
				c-11.3,0-16.9,6.3-16.9,18.8v33.8H504v75.2H381.8v235.7h-79V356.1h-88.4V280.9z"/>
			<path class="st1" d="M213.8,280.1h88.4v-63.9c0-18,6.1-33.1,18.2-45.4c12.1-12.3,27.2-18.5,45.1-18.5h126.6v75.2h-94
				c-11.3,0-16.9,6.3-16.9,18.8v33.9h122.3v75.2H381.2V591h-79V355.4h-88.4V280.1z"/>
			<path class="st1" d="M213.2,279.4h88.4v-63.9c0-18,6.1-33.1,18.2-45.4c12.1-12.3,27.2-18.5,45.1-18.5h126.6v75.2h-94
				c-11.3,0-16.9,6.3-16.9,18.8v33.8h122.3v75.2H380.5v235.7h-79V354.6h-88.4V279.4z"/>
			<path class="st1" d="M212.6,278.7H301v-63.9c0-18,6.1-33.1,18.2-45.4c12.1-12.3,27.2-18.5,45.1-18.5h126.6V226h-94
				c-11.3,0-16.9,6.3-16.9,18.8v33.8h122.3v75.2H380v235.7h-79V353.9h-88.4V278.7z"/>
			<path class="st1" d="M212,278h88.4V214c0-18,6.1-33.1,18.2-45.4c12.1-12.3,27.2-18.5,45.1-18.5h126.6v75.2h-94
				c-11.3,0-16.9,6.3-16.9,18.8V278h122.2v75.2H379.4v235.7h-79V353.2H212V278z"/>
			<path class="st1" d="M211.4,277.2h88.4v-63.9c0-18,6.1-33.1,18.2-45.4c12.1-12.3,27.2-18.5,45.1-18.5h126.6v75.2h-94
				c-11.3,0-16.9,6.3-16.9,18.8v33.8H501v75.2H378.8v235.7h-79V352.5h-88.4V277.2z"/>
			<path class="st1" d="M210.8,276.5h88.4v-63.9c0-18,6.1-33.1,18.2-45.4c12.1-12.3,27.2-18.5,45.1-18.5h126.6v75.2h-94
				c-11.3,0-16.9,6.3-16.9,18.8v33.8h122.3v75.2H378.2v235.7h-79V351.7h-88.4V276.5z"/>
			<path class="st1" d="M210.2,275.8h88.4v-63.9c0-18,6.1-33.1,18.2-45.4c12.1-12.3,27.2-18.5,45.1-18.5h126.6v75.2h-94
				c-11.3,0-16.9,6.3-16.9,18.8v33.9h122.3V351H377.6v235.7h-79V351h-88.4V275.8z"/>
			<path class="st1" d="M209.6,275.1H298v-63.9c0-18,6.1-33.1,18.2-45.4c12.1-12.3,27.2-18.5,45.1-18.5h126.6v75.2h-94
				c-11.3,0-16.9,6.3-16.9,18.8v33.8h122.3v75.2H377V586h-79V350.3h-88.4V275.1z"/>
			<path class="st1" d="M209,274.3h88.4v-63.9c0-18,6.1-33.1,18.2-45.4c12.1-12.3,27.2-18.5,45.1-18.5h126.6v75.2h-94
				c-11.3,0-16.9,6.3-16.9,18.8v33.8h122.3v75.2H376.4v235.7h-79V349.6H209V274.3z"/>
			<path class="st1" d="M208.4,273.6h88.4v-63.9c0-18,6.1-33.1,18.2-45.4c12.1-12.3,27.2-18.5,45.1-18.5h126.6V221h-94
				c-11.3,0-16.9,6.3-16.9,18.8v33.8H498v75.2H375.8v235.7h-79V348.8h-88.4V273.6z"/>
			<path class="st1" d="M207.8,272.9h88.4v-63.9c0-18,6.1-33.1,18.2-45.4c12.1-12.3,27.2-18.5,45.1-18.5h126.6v75.2h-94
				c-11.3,0-16.9,6.3-16.9,18.8v33.8h122.3v75.2H375.2v235.7h-79V348.1h-88.4V272.9z"/>
			<path class="st1" d="M207.2,272.2h88.4v-64c0-18,6.1-33.1,18.2-45.4c12.1-12.3,27.2-18.5,45.1-18.5h126.6v75.2h-94
				c-11.3,0-16.9,6.3-16.9,18.8v33.9h122.3v75.2H374.6v235.7h-79V347.4h-88.4V272.2z"/>
			<path class="st1" d="M206.7,271.4H295v-63.9c0-18,6.1-33.1,18.2-45.4c12.1-12.3,27.2-18.5,45.1-18.5H485v75.2h-94
				c-11.3,0-16.9,6.3-16.9,18.8v33.8h122.2v75.2H374v235.7h-79V346.6h-88.4V271.4z"/>
			<path class="st1" d="M206.1,270.7h88.4v-63.9c0-18,6.1-33.1,18.2-45.4c12.1-12.3,27.2-18.5,45.1-18.5h126.6V218h-94
				c-11.3,0-16.9,6.3-16.9,18.8v33.8h122.2v75.2H373.4v235.7h-79V345.9h-88.4V270.7z"/>
			<path class="st1" d="M205.5,270h88.4V206c0-18,6.1-33.1,18.2-45.4c12.1-12.3,27.2-18.5,45.1-18.5h126.6v75.2h-94
				c-11.3,0-16.9,6.3-16.9,18.8v33.8h122.3v75.2H372.8v235.7h-79V345.2h-88.4V270z"/>
			<path class="st1" d="M204.9,269.2h88.4v-63.9c0-18,6.1-33.1,18.2-45.4c12.1-12.3,27.2-18.5,45.1-18.5h126.6v75.2h-94
				c-11.3,0-16.9,6.3-16.9,18.8v33.8h122.3v75.2H372.2v235.7h-79V344.5h-88.4V269.2z"/>
			<path class="st1" d="M204.3,268.5h88.4v-63.9c0-18,6.1-33.1,18.2-45.4c12.1-12.3,27.2-18.5,45.1-18.5h126.6v75.2h-94
				c-11.3,0-16.9,6.3-16.9,18.8v33.9h122.3v75.2H371.6v235.7h-79V343.7h-88.4V268.5z"/>
			<path class="st1" d="M203.7,267.8h88.4v-63.9c0-18,6.1-33.1,18.2-45.4c12.1-12.3,27.2-18.5,45.1-18.5H482v75.2h-94
				c-11.3,0-16.9,6.3-16.9,18.8v33.9h122.3V343H371v235.7h-79V343h-88.4V267.8z"/>
			<path class="st1" d="M203.1,267.1h88.4v-63.9c0-18,6.1-33.1,18.2-45.4c12.1-12.3,27.2-18.5,45.1-18.5h126.6v75.2h-94
				c-11.3,0-16.9,6.3-16.9,18.8V267h122.3v75.2H370.4v235.7h-79V342.3h-88.4V267.1z"/>
			<path class="st1" d="M202.5,266.3h88.4v-63.9c0-18,6.1-33.1,18.2-45.4c12.1-12.3,27.2-18.5,45.1-18.5h126.6v75.2h-94
				c-11.3,0-16.9,6.3-16.9,18.8v33.8h122.3v75.2H369.9v235.7h-79V341.5h-88.4V266.3z"/>
			<path class="st1" d="M201.9,265.6h88.4v-63.9c0-18,6.1-33.1,18.2-45.4c12.1-12.3,27.2-18.5,45.1-18.5h126.6V213h-94
				c-11.3,0-16.9,6.3-16.9,18.8v33.8h122.3v75.2H369.3v235.7h-79V340.8h-88.4V265.6z"/>
			<path class="st1" d="M201.3,264.9h88.4v-63.9c0-18,6.1-33.1,18.2-45.4C320,143.2,335,137,353,137h126.6v75.2h-94
				c-11.3,0-16.9,6.3-16.9,18.8v33.9h122.3v75.2H368.7v235.7h-79V340.1h-88.4V264.9z"/>
			<path class="st1" d="M200.7,264.1h88.4v-63.9c0-18,6.1-33.1,18.2-45.4c12.1-12.3,27.2-18.5,45.1-18.5H479v75.2h-94
				c-11.3,0-16.9,6.3-16.9,18.8v33.8h122.3v75.2H368.1V575h-79V339.4h-88.4V264.1z"/>
			<path class="st1" d="M200.1,263.4h88.4v-63.9c0-18,6.1-33.1,18.2-45.4c12.1-12.3,27.2-18.5,45.1-18.5h126.6v75.2h-94
				c-11.3,0-16.9,6.3-16.9,18.8v33.8h122.2v75.2H367.5v235.7h-79V338.6h-88.4V263.4z"/>
			<path class="st1" d="M199.5,262.7h88.4v-63.9c0-18,6.1-33.1,18.2-45.4c12.1-12.3,27.2-18.5,45.1-18.5h126.6V210h-94
				c-11.3,0-16.9,6.3-16.9,18.8v33.8h122.3v75.2H366.9v235.7h-79V337.9h-88.4V262.7z"/>
			<path class="st1" d="M198.9,262h88.4V198c0-18,6.1-33.1,18.2-45.4c12.1-12.3,27.2-18.5,45.1-18.5h126.6v75.2h-94
				c-11.3,0-16.9,6.3-16.9,18.8v33.8h122.3v75.2H366.3v235.7h-79V337.2h-88.4V262z"/>
			<path class="st1" d="M198.3,261.2h88.4v-63.9c0-18,6.1-33.1,18.2-45.4c12.1-12.3,27.2-18.5,45.1-18.5h126.6v75.2h-94
				c-11.3,0-16.9,6.3-16.9,18.8v33.8h122.3v75.2H365.7v235.7h-79V336.5h-88.4V261.2z"/>
			<path class="st1" d="M197.7,260.5h88.4v-63.9c0-18,6.1-33.1,18.2-45.4c12.1-12.3,27.2-18.5,45.1-18.5H476v75.2h-94
				c-11.3,0-16.9,6.3-16.9,18.8v33.9h122.3v75.2H365.1v235.7h-79V335.8h-88.4V260.5z"/>
			<path class="st1" d="M197.1,259.8h88.4v-63.9c0-18,6.1-33.1,18.2-45.4c12.1-12.3,27.2-18.5,45.1-18.5h126.6v75.2h-94
				c-11.3,0-16.9,6.3-16.9,18.8v33.8h122.3V335H364.5v235.7h-79V335h-88.4V259.8z"/>
			<path class="st1" d="M196.5,259.1h88.4v-63.9c0-18,6.1-33.1,18.2-45.4c12.1-12.3,27.2-18.5,45.1-18.5h126.6v75.2h-94
				c-11.3,0-16.9,6.3-16.9,18.8V259h122.3v75.2H363.9V570h-79V334.3h-88.4V259.1z"/>
			<path class="st1" d="M195.9,258.3h88.4v-63.9c0-18,6.1-33.1,18.2-45.4c12.1-12.3,27.2-18.5,45.1-18.5h126.6v75.2h-94
				c-11.3,0-16.9,6.3-16.9,18.8v33.8h122.3v75.2H363.3v235.7h-79V333.5h-88.4V258.3z"/>
			<path class="st1" d="M195.3,257.6h88.4v-63.9c0-18,6.1-33.1,18.2-45.4c12.1-12.3,27.2-18.5,45.1-18.5h126.6v75.2h-94
				c-11.3,0-16.9,6.3-16.9,18.8v33.8h122.2v75.2H362.7v235.7h-79V332.8h-88.4V257.6z"/>
			<path class="st1" d="M194.8,256.9h88.4v-64c0-18,6.1-33.1,18.2-45.4c12.1-12.3,27.2-18.5,45.1-18.5h126.6v75.2h-94
				c-11.3,0-16.9,6.3-16.9,18.8v33.9h122.2v75.2H362.1v235.7h-79V332.1h-88.4V256.9z"/>
			<path class="st1" d="M194.2,256.1h88.4v-63.9c0-18,6.1-33.1,18.2-45.4c12.1-12.3,27.2-18.5,45.1-18.5h126.6v75.2h-94
				c-11.3,0-16.9,6.3-16.9,18.8v33.8h122.3v75.2H361.5V567h-79V331.4h-88.4V256.1z"/>
			<path class="st1" d="M193.6,255.4h88.4v-63.9c0-18,6.1-33.1,18.2-45.4c12.1-12.3,27.2-18.5,45.1-18.5h126.6v75.2h-94
				c-11.3,0-16.9,6.3-16.9,18.8v33.8h122.3v75.2H360.9v235.7h-79V330.6h-88.4V255.4z"/>
			<path class="st1" d="M193,254.7h88.4v-63.9c0-18,6.1-33.1,18.2-45.4c12.1-12.3,27.2-18.5,45.1-18.5h126.6V202h-94
				c-11.3,0-16.9,6.3-16.9,18.8v33.8h122.3v75.2H360.3v235.8h-79V329.9H193V254.7z"/>
			<path class="st1" d="M192.4,254h88.4V190c0-18,6.1-33.1,18.2-45.4c12.1-12.3,27.2-18.5,45.1-18.5h126.6v75.2h-94
				c-11.3,0-16.9,6.3-16.9,18.8v33.8H482v75.2H359.8v235.7h-79V329.2h-88.4V254z"/>
			<path class="st1" d="M191.8,253.2h88.4v-63.9c0-18,6.1-33.1,18.2-45.4c12.1-12.3,27.2-18.5,45.1-18.5h126.6v75.2h-94
				c-11.3,0-16.9,6.3-16.9,18.8v33.9h122.3v75.2H359.1v235.7h-79V328.4h-88.4V253.2z"/>
			<path class="st1" d="M191.2,252.5h88.4v-63.9c0-18,6.1-33.1,18.2-45.4c12.1-12.3,27.2-18.5,45.1-18.5h126.6v75.2h-94
				c-11.3,0-16.9,6.3-16.9,18.8v33.8h122.3v75.2H358.5v235.7h-79V327.7h-88.4V252.5z"/>
			<path class="st1" d="M190.6,251.8H279v-64c0-18,6.1-33.1,18.2-45.4c12.1-12.3,27.2-18.5,45.1-18.5h126.6v75.2h-94
				c-11.3,0-16.9,6.3-16.9,18.8v33.8h122.3v75.2H357.9v235.7h-79V327h-88.4V251.8z"/>
			<path class="st1" d="M190,251.1h88.4v-63.9c0-18,6.1-33.1,18.2-45.4c12.1-12.3,27.2-18.5,45.1-18.5h126.6v75.2h-94
				c-11.3,0-16.9,6.3-16.9,18.8V251h122.3v75.2H357.4v235.7h-79V326.3H190V251.1z"/>
			<path class="st1" d="M189.4,250.3h88.4v-63.9c0-18,6.1-33.1,18.2-45.4c12.1-12.3,27.2-18.5,45.1-18.5h126.6v75.2h-94
				c-11.3,0-16.9,6.3-16.9,18.8v33.8H479v75.2H356.8v235.7h-79V325.5h-88.4V250.3z"/>
			<path class="st1" d="M188.8,249.6h88.4v-63.9c0-18,6.1-33.1,18.2-45.4c12.1-12.3,27.2-18.5,45.1-18.5h126.6v75.2h-94
				c-11.3,0-16.9,6.3-16.9,18.8v33.8h122.2v75.2H356.2v235.7h-79V324.8h-88.4V249.6z"/>
			<path class="st1" d="M188.2,248.9h88.4v-63.9c0-18,6.1-33.1,18.2-45.4c12.1-12.3,27.2-18.5,45.1-18.5h126.6v75.2h-94
				c-11.3,0-16.9,6.3-16.9,18.8v33.8h122.3V324H355.6v235.7h-79V324.1h-88.4V248.9z"/>
			<path class="st1" d="M187.6,248.1H276v-63.9c0-18,6.1-33.1,18.2-45.4c12.1-12.3,27.2-18.5,45.1-18.5h126.6v75.2h-94
				c-11.3,0-16.9,6.3-16.9,18.8v33.8h122.3v75.2H355V559h-79V323.4h-88.4V248.1z"/>
			<path class="st1" d="M187,247.4h88.4v-63.9c0-18,6.1-33.1,18.2-45.4c12.1-12.3,27.2-18.5,45.1-18.5h126.6v75.2h-94
				c-11.3,0-16.9,6.3-16.9,18.8v33.9h122.3v75.2H354.4v235.7h-79V322.6H187V247.4z"/>
			<path class="st1" d="M186.4,246.7h88.4v-63.9c0-18,6.1-33.1,18.2-45.4c12.1-12.3,27.2-18.5,45.1-18.5h126.6V194h-94
				c-11.3,0-16.9,6.3-16.9,18.8v33.8H476v75.2H353.8v235.7h-79V321.9h-88.4V246.7z"/>
			<path class="st1" d="M185.8,246h88.4V182c0-18,6.1-33.1,18.2-45.4c12.1-12.3,27.2-18.5,45.1-18.5h126.6v75.2h-94
				c-11.3,0-16.9,6.3-16.9,18.8V246h122.3v75.2H353.2v235.7h-79V321.2h-88.4V246z"/>
			<path class="st1" d="M185.2,245.2h88.4v-63.9c0-18,6.1-33.1,18.2-45.4c12.1-12.3,27.2-18.5,45.2-18.5h126.6v75.2h-94
				c-11.3,0-16.9,6.3-16.9,18.8v33.9h122.2v75.2H352.6v235.7h-79V320.5h-88.4V245.2z"/>
			<path class="st1" d="M184.6,244.5H273v-63.9c0-18,6.1-33.1,18.2-45.4c12.1-12.3,27.2-18.5,45.1-18.5h126.6v75.2h-94
				c-11.3,0-16.9,6.3-16.9,18.8v33.8h122.2v75.2H352v235.7h-79V319.7h-88.4V244.5z"/>
			<path class="st1" d="M184,243.8h88.4v-63.9c0-18,6.1-33.1,18.2-45.4c12.1-12.3,27.2-18.5,45.1-18.5h126.6v75.2h-94
				c-11.3,0-16.9,6.3-16.9,18.8v33.8h122.3V319H351.4v235.7h-79V319H184V243.8z"/>
			<path class="st1" d="M183.4,243h88.4v-63.9c0-18,6.1-33.1,18.2-45.4c12.1-12.3,27.2-18.5,45.1-18.5h126.6v75.2h-94
				c-11.3,0-16.9,6.3-16.9,18.8V243H473v75.2H350.8v235.7h-79V318.3h-88.4V243z"/>
			<path class="st1" d="M182.9,242.3h88.4v-63.9c0-18,6.1-33.1,18.2-45.4c12.1-12.3,27.2-18.5,45.1-18.5h126.6v75.2h-94
				c-11.3,0-16.9,6.3-16.9,18.8v33.8h122.3v75.2H350.2v235.7h-79V317.5h-88.4V242.3z"/>
			<path class="st1" d="M182.3,241.6h88.4v-64c0-18,6.1-33.1,18.2-45.4c12.1-12.3,27.2-18.5,45.1-18.5h126.6v75.2h-94
				c-11.3,0-16.9,6.3-16.9,18.8v33.9h122.3v75.2H349.6v235.7h-79V316.8h-88.4V241.6z"/>
			<path class="st1" d="M181.7,240.9H270v-63.9c0-18,6.1-33.1,18.2-45.4c12.1-12.3,27.2-18.5,45.1-18.5H460v75.2h-94
				c-11.3,0-16.9,6.3-16.9,18.8v33.8h122.3V316H349v235.7h-79V316.1h-88.4V240.9z"/>
			<path class="st1" d="M181.1,240.1h88.4v-63.9c0-18,6.1-33.1,18.2-45.4c12.1-12.3,27.2-18.5,45.1-18.5h126.6v75.2h-94
				c-11.3,0-16.9,6.3-16.9,18.8v33.8h122.3v75.2H348.4V551h-79V315.4h-88.4V240.1z"/>
			<path class="st1" d="M180.5,239.4h88.4v-63.9c0-18,6.1-33.1,18.2-45.4c12.1-12.3,27.2-18.5,45.1-18.5h126.6v75.2h-94
				c-11.3,0-16.9,6.3-16.9,18.8v33.8h122.3v75.2H347.8v235.8h-79V314.6h-88.4V239.4z"/>
			<path class="st1" d="M179.9,238.7h88.4v-63.9c0-18,6.1-33.1,18.2-45.4c12.1-12.3,27.2-18.5,45.1-18.5h126.6V186h-94
				c-11.3,0-16.9,6.3-16.9,18.8v33.8h122.2v75.2H347.2v235.7h-79V313.9h-88.4V238.7z"/>
			<path class="st1" d="M179.3,238h88.4V174c0-18,6.1-33.1,18.2-45.4c12.1-12.3,27.2-18.5,45.1-18.5h126.6v75.2h-94
				c-11.3,0-16.9,6.3-16.9,18.8V238h122.2v75.2H346.6v235.7h-79V313.2h-88.4V238z"/>
			<path class="st1" d="M178.7,237.2h88.4v-63.9c0-18,6.1-33.1,18.2-45.4c12.1-12.3,27.2-18.5,45.1-18.5H457v75.2h-94
				c-11.3,0-16.9,6.3-16.9,18.8v33.8h122.2v75.2H346v235.7h-79V312.4h-88.4V237.2z"/>
			<path class="st1" d="M178.1,236.5h88.4v-64c0-18,6.1-33.1,18.2-45.4c12.1-12.3,27.2-18.5,45.1-18.5h126.6v75.2h-94
				c-11.3,0-16.9,6.3-16.9,18.8v33.8h122.2v75.2H345.4v235.7h-79V311.7h-88.4V236.5z"/>
			<path class="st1" d="M177.5,235.8h88.4v-63.9c0-18,6.1-33.1,18.2-45.4c12.1-12.3,27.2-18.5,45.1-18.5h126.6v75.2h-94
				c-11.3,0-16.9,6.3-16.9,18.8v33.8h122.3V311H344.8v235.7h-79V311h-88.4V235.8z"/>
			<path class="st1" d="M176.9,235h88.4v-63.9c0-18,6.1-33.1,18.2-45.4c12.1-12.3,27.2-18.5,45.1-18.5h126.6v75.2h-94
				c-11.3,0-16.9,6.3-16.9,18.8V235h122.3v75.2H344.3v235.7h-79V310.3h-88.4V235z"/>
			<path class="st1" d="M176.3,234.3h88.4v-63.9c0-18,6.1-33.1,18.2-45.4c12.1-12.3,27.2-18.5,45.1-18.5h126.6v75.2h-94
				c-11.3,0-16.9,6.3-16.9,18.8v33.8h122.3v75.2H343.7v235.7h-79V309.5h-88.4V234.3z"/>
			<path class="st1" d="M175.7,233.6h88.4v-63.9c0-18,6.1-33.1,18.2-45.4c12.1-12.3,27.2-18.5,45.1-18.5H454v75.2h-94
				c-11.3,0-16.9,6.3-16.9,18.8v33.8h122.3v75.2H343.1v235.7h-79V308.8h-88.4V233.6z"/>
			<path class="st1" d="M175.1,232.9h88.4v-63.9c0-18,6.1-33.1,18.2-45.4c12.1-12.3,27.2-18.5,45.1-18.5h126.6v75.2h-94
				c-11.3,0-16.9,6.3-16.9,18.8v33.8h122.3v75.2H342.5v235.7h-79V308.1h-88.4V232.9z"/>
			<path class="st1" d="M174.5,232.1h88.4v-63.9c0-18,6.1-33.1,18.2-45.4s27.2-18.5,45.1-18.5h126.6v75.2h-94
				c-11.3,0-16.9,6.3-16.9,18.8v33.8h122.3v75.2H341.9V543h-79V307.3h-88.4V232.1z"/>
			<path class="st1" d="M173.9,231.4h88.4v-63.9c0-18,6.1-33.1,18.2-45.4c12.1-12.3,27.2-18.5,45.1-18.5h126.6v75.2h-94
				c-11.3,0-16.9,6.3-16.9,18.8v33.8h122.2v75.2H341.3v235.7h-79V306.6h-88.4V231.4z"/>
			<path class="st1" d="M173.3,230.7h88.4v-63.9c0-18,6.1-33.1,18.2-45.4C292,109,307,102.8,325,102.8h126.6V178h-94
				c-11.3,0-16.9,6.3-16.9,18.8v33.8h122.2v75.2H340.7v235.7h-79V305.9h-88.4V230.7z"/>
			<path class="st1" d="M172.7,230h88.4V166c0-18,6.1-33.1,18.2-45.4s27.2-18.5,45.1-18.5H451v75.2h-94c-11.3,0-16.9,6.3-16.9,18.8
				v33.8h122.2v75.3H340.1v235.7h-79V305.2h-88.4V230z"/>
			<path class="st1" d="M172.1,229.2h88.4v-63.9c0-18,6.1-33.1,18.2-45.4c12.1-12.3,27.2-18.5,45.1-18.5h126.6v75.2h-94
				c-11.3,0-16.9,6.3-16.9,18.8v33.8h122.2v75.2H339.5v235.7h-79V304.4h-88.4V229.2z"/>
			<path class="st1" d="M171.5,228.5h88.4v-63.9c0-18,6.1-33.1,18.2-45.4c12.1-12.3,27.2-18.5,45.1-18.5h126.6v75.2h-94
				c-11.3,0-16.9,6.3-16.9,18.8v33.8h122.3v75.2H338.9v235.7h-79V303.7h-88.4V228.5z"/>
			<path class="st1" d="M170.9,227.8h88.4v-63.9c0-18,6.1-33.1,18.2-45.4s27.2-18.5,45.1-18.5h126.6v75.2h-94
				c-11.3,0-16.9,6.3-16.9,18.8v33.8h122.3v75.2H338.3v235.7h-79V303h-88.4V227.8z"/>
			<path class="st1" d="M170.4,227h88.4v-63.9c0-18,6.1-33.1,18.2-45.4c12.1-12.3,27.2-18.5,45.2-18.5h126.6v75.2h-94
				c-11.3,0-16.9,6.3-16.9,18.8V227H460v75.2H337.7v235.7h-79V302.3h-88.4V227z"/>
			<path class="st1" d="M169.8,226.3h88.4v-64c0-18,6.1-33.1,18.2-45.4c12.1-12.3,27.2-18.5,45.1-18.5h126.6v75.2h-94
				c-11.3,0-16.9,6.3-16.9,18.8v33.9h122.3v75.2H337.1v235.7h-79V301.5h-88.4V226.3z"/>
			<path class="st1" d="M169.2,225.6h88.4v-63.9c0-18,6.1-33.1,18.2-45.4c12.1-12.3,27.2-18.5,45.1-18.5h126.6v75.2h-94
				c-11.3,0-16.9,6.3-16.9,18.8v33.8h122.3v75.2H336.5v235.7h-79V300.8h-88.4V225.6z"/>
			<path class="st1" d="M168.6,224.9h88.4v-63.9c0-18,6.1-33.1,18.2-45.4c12.1-12.3,27.2-18.5,45.1-18.5h126.6v75.2h-94
				c-11.3,0-16.9,6.3-16.9,18.8v33.8h122.2V300H335.9v235.7h-79V300.1h-88.4V224.9z"/>
			<path class="st1" d="M168,224.1h88.4v-63.9c0-18,6.1-33.1,18.2-45.4c12.1-12.3,27.2-18.5,45.1-18.5h126.6v75.2h-94
				c-11.3,0-16.9,6.3-16.9,18.8v33.8h122.2v75.2H335.3V535h-79V299.3H168V224.1z"/>
			<path class="st1" d="M167.4,223.4h88.4v-63.9c0-18,6.1-33.1,18.2-45.4c12.1-12.3,27.2-18.5,45.1-18.5h126.6v75.2h-94
				c-11.3,0-16.9,6.3-16.9,18.8v33.8H457v75.2H334.7v235.7h-79V298.6h-88.4V223.4z"/>
			<path class="st1" d="M166.8,222.7h88.4v-63.9c0-18,6.1-33.1,18.2-45.4c12.1-12.3,27.2-18.5,45.1-18.5h126.6V170h-94
				c-11.3,0-16.9,6.3-16.9,18.8v33.9h122.2v75.2H334.1v235.7h-79V297.9h-88.4V222.7z"/>
			<path class="st1" d="M166.2,221.9h88.4V158c0-18,6.1-33.1,18.2-45.4c12.1-12.3,27.2-18.5,45.1-18.5h126.6v75.2h-94
				c-11.3,0-16.9,6.3-16.9,18.8v33.8h122.3v75.2H333.5v235.7h-79V297.2h-88.4V221.9z"/>
			<path class="st1" d="M165.6,221.2H254v-64c0-18,6.1-33.1,18.2-45.4c12.1-12.3,27.2-18.5,45.1-18.5h126.6v75.2h-94.1
				c-11.3,0-16.9,6.3-16.9,18.8v33.8h122.3v75.2H332.9V532h-79V296.4h-88.4V221.2z"/>
			<path class="st1" d="M165,220.5h88.4v-63.9c0-18,6.1-33.1,18.2-45.4c12.1-12.3,27.2-18.5,45.1-18.5h126.6v75.2h-94
				c-11.3,0-16.9,6.3-16.9,18.8v33.8h122.3v75.2H332.4v235.7h-79V295.7H165V220.5z"/>
			<path class="st1" d="M164.4,219.8h88.4v-63.9c0-18,6.1-33.1,18.2-45.4c12.1-12.3,27.2-18.5,45.1-18.5h126.6v75.2h-94
				c-11.3,0-16.9,6.3-16.9,18.8v33.8H454V295H331.8v235.7h-79V295h-88.4V219.8z"/>
			<path class="st1" d="M163.8,219h88.4v-63.9c0-18,6.1-33.1,18.2-45.4c12.1-12.3,27.2-18.5,45.1-18.5h126.6v75.2h-94
				c-11.3,0-16.9,6.3-16.9,18.8V219h122.3v75.2H331.2v235.7h-79V294.3h-88.4V219z"/>
			<path class="st1" d="M163.2,218.3h88.4v-63.9c0-18,6.1-33.1,18.2-45.4s27.2-18.5,45.1-18.5h126.6v75.2h-94
				c-11.3,0-16.9,6.3-16.9,18.8v33.8h122.3v75.2H330.6v235.7h-79V293.5h-88.4V218.3z"/>
			<path class="st1" d="M162.6,217.6H251v-63.9c0-18,6.1-33.1,18.2-45.4c12.1-12.3,27.2-18.5,45.2-18.5H441v75.2h-94.1
				c-11.3,0-16.9,6.3-16.9,18.8v33.8h122.3v75.2H330v235.7h-79V292.8h-88.4V217.6z"/>
			<path class="st1" d="M162,216.9h88.4v-63.9c0-18,6.1-33.1,18.2-45.4C280.7,95.1,295.7,89,313.7,89h126.6v75.2h-94
				c-11.3,0-16.9,6.3-16.9,18.8v33.8h122.2V292H329.4v235.7h-79V292.1H162V216.9z"/>
			<path class="st1" d="M161.4,216.1h88.4v-63.9c0-18,6.1-33.1,18.2-45.4c12.1-12.3,27.2-18.5,45.1-18.5h126.6v75.2h-94
				c-11.3,0-16.9,6.3-16.9,18.8v33.8H451v75.2H328.8V527h-79V291.3h-88.4V216.1z"/>
			<path class="st1" d="M160.8,215.4h88.4v-63.9c0-18,6.1-33.1,18.2-45.4c12.1-12.3,27.2-18.5,45.1-18.5h126.6v75.2h-94
				c-11.3,0-16.9,6.3-16.9,18.8v33.8h122.3v75.2H328.2v235.7h-79V290.6h-88.4V215.4z"/>
			<path class="st1" d="M160.2,214.7h88.4v-63.9c0-18,6.1-33.1,18.2-45.4C278.9,93,294,86.8,311.9,86.8h126.6V162h-94
				c-11.3,0-16.9,6.3-16.9,18.8v33.8h122.3v75.3H327.6v235.7h-79V289.9h-88.4V214.7z"/>
			<path class="st1" d="M159.6,213.9H248V150c0-18,6.1-33.1,18.2-45.4c12.1-12.3,27.2-18.5,45.1-18.5h126.6v75.2h-94
				c-11.3,0-16.9,6.3-16.9,18.8v33.8h122.3v75.2H327v235.7h-79V289.2h-88.4V213.9z"/>
			<path class="st1" d="M159.1,213.2h88.4v-63.9c0-18,6.1-33.1,18.2-45.4c12.1-12.3,27.2-18.5,45.1-18.5h126.6v75.2h-94
				c-11.3,0-16.9,6.3-16.9,18.8v33.8h122.3v75.2H326.4v235.7h-79V288.4h-88.4V213.2z"/>
			<path class="st1" d="M158.5,212.5h88.4v-63.9c0-18,6.1-33.1,18.2-45.4c12.1-12.3,27.2-18.5,45.1-18.5h126.6v75.2h-94
				c-11.3,0-16.9,6.3-16.9,18.8v33.8h122.3v75.2H325.8v235.7h-79V287.7h-88.4V212.5z"/>
			<path class="st1" d="M157.8,211.8h88.4v-63.9c0-18,6.1-33.1,18.2-45.4c12.1-12.3,27.2-18.5,45.1-18.5h126.6v75.2h-94
				c-11.3,0-16.9,6.3-16.9,18.8v33.8h122.3V287H325.2v235.7h-79V287h-88.4V211.8z"/>
			<path class="st1" d="M157.2,211.1h88.4v-64c0-18,6.1-33.1,18.2-45.4c12.1-12.3,27.2-18.5,45.1-18.5h126.6v75.2h-94
				c-11.3,0-16.9,6.3-16.9,18.8v33.9h122.2v75.2H324.6v235.7h-79V286.2h-88.4V211.1z"/>
			<path class="st1" d="M156.7,210.3H245v-63.9c0-18,6.1-33.1,18.2-45.4c12.1-12.3,27.2-18.5,45.1-18.5H435v75.2h-94
				c-11.3,0-16.9,6.3-16.9,18.8v33.8h122.2v75.2H324v235.7h-79V285.5h-88.4V210.3z"/>
			<path class="st1" d="M156.1,209.6h88.4v-63.9c0-18,6.1-33.1,18.2-45.4s27.2-18.5,45.1-18.5h126.6v75.2h-94
				c-11.3,0-16.9,6.3-16.9,18.8v33.8h122.2v75.2H323.4v235.7h-79V284.8h-88.4V209.6z"/>
			<path class="st1" d="M155.5,208.9h88.4v-63.9c0-18,6.1-33.1,18.2-45.4C274.2,87.1,289.2,81,307.2,81h126.6v75.2h-94
				c-11.3,0-16.9,6.3-16.9,18.8v33.8h122.2V284H322.8v235.7h-79V284.1h-88.4V208.9z"/>
			<path class="st1" d="M154.9,208.1h88.4v-63.9c0-18,6.1-33.1,18.2-45.4c12.1-12.3,27.2-18.5,45.1-18.5h126.6v75.2h-94
				c-11.3,0-16.9,6.3-16.9,18.8v33.9h122.3v75.2H322.2V519h-79V283.3h-88.4V208.1z"/>
			<path class="st1" d="M154.3,207.4h88.4v-63.9c0-18,6.1-33.1,18.2-45.4C273,85.7,288,79.5,306,79.5h126.6v75.2h-94
				c-11.3,0-16.9,6.3-16.9,18.8v33.9h122.3v75.2H321.7v235.7h-79V282.6h-88.4V207.4z"/>
			<path class="st1" d="M153.7,206.7h88.4v-63.9c0-18,6.1-33.1,18.2-45.4c12.1-12.3,27.2-18.5,45.1-18.5H432V154h-94
				c-11.3,0-16.9,6.3-16.9,18.8v33.8h122.3v75.2H321.1v235.7h-79V281.9h-88.4V206.7z"/>
			<path class="st1" d="M153.1,205.9h88.4v-64c0-18,6.1-33.1,18.2-45.4C271.8,84.2,286.8,78,304.8,78h126.6v75.2h-94
				c-11.3,0-16.9,6.3-16.9,18.8v33.8h122.3v75.2H320.4v235.7h-79V281.2h-88.4V205.9z"/>
			<path class="st1" d="M152.5,205.2h88.4v-63.9c0-18,6.1-33.1,18.2-45.4c12.1-12.3,27.2-18.5,45.1-18.5h126.6v75.2h-94
				c-11.3,0-16.9,6.3-16.9,18.8v33.8h122.3v75.2H319.8v235.7h-79V280.4h-88.4V205.2z"/>
			<path class="st1" d="M151.9,204.5h88.4v-63.9c0-18,6.1-33.1,18.2-45.4c12.1-12.3,27.2-18.5,45.1-18.5h126.6v75.2h-94
				c-11.3,0-16.9,6.3-16.9,18.8v33.8h122.3v75.2H319.3v235.7h-79V279.7h-88.4V204.5z"/>
			<path class="st1" d="M151.3,203.8h88.4v-63.9c0-18,6.1-33.1,18.2-45.4C270,82,285,75.9,303,75.9h126.6v75.2h-94
				c-11.3,0-16.9,6.3-16.9,18.8v33.8h122.2V279H318.7v235.7h-79V279h-88.4V203.8z"/>
			<path class="st1" d="M150.7,203h88.4v-63.9c0-18,6.1-33.1,18.2-45.4c12.1-12.3,27.2-18.5,45.1-18.5H429v75.2h-94
				c-11.3,0-16.9,6.3-16.9,18.8V203h122.2v75.2H318.1v235.7h-79V278.2h-88.4V203z"/>
			<path class="st1" d="M150.1,202.3h88.4v-63.9c0-18,6.1-33.1,18.2-45.4c12.1-12.3,27.2-18.5,45.1-18.5h126.6v75.2h-94
				c-11.3,0-16.9,6.3-16.9,18.8v33.8h122.2v75.2H317.5v235.7h-79V277.5h-88.4V202.3z"/>
			<path class="st1" d="M149.5,201.6h88.4v-63.9c0-18,6.1-33.1,18.2-45.4c12.1-12.3,27.2-18.5,45.1-18.5h126.6v75.2h-94
				c-11.3,0-16.9,6.3-16.9,18.8v33.8h122.2v75.2H316.9v235.7h-79V276.8h-88.4V201.6z"/>
			<path class="st1" d="M148.9,200.8h88.4v-63.9c0-18,6.1-33.1,18.2-45.4S282.7,73,300.6,73h126.6v75.2h-94
				c-11.3,0-16.9,6.3-16.9,18.8v33.8h122.3v75.2H316.3v235.7h-79V276.1h-88.4V200.8z"/>
			<path class="st1" d="M148.3,200.1h88.4v-63.9c0-18,6.1-33.1,18.2-45.4C267,78.4,282,72.2,300,72.2h126.6v75.2h-94
				c-11.3,0-16.9,6.3-16.9,18.8v33.8h122.3v75.2H315.7V511h-79V275.3h-88.4V200.1z"/>
			<path class="st1" d="M147.7,199.4h88.4v-63.9c0-18,6.1-33.1,18.2-45.4s27.2-18.5,45.1-18.5H426v75.2h-94
				c-11.3,0-16.9,6.3-16.9,18.8v33.8h122.3v75.3H315.1v235.7h-79V274.6h-88.4V199.4z"/>
			<path class="st1" d="M147.1,198.7h88.4v-63.9c0-18,6.1-33.1,18.2-45.4c12.1-12.3,27.2-18.5,45.1-18.5h126.6V146h-94
				c-11.3,0-16.9,6.3-16.9,18.8v33.8h122.3v75.2H314.5v235.7h-79V273.9h-88.4V198.7z"/>
			<path class="st1" d="M146.5,197.9h88.4V134c0-18,6.1-33.1,18.2-45.4c12.1-12.3,27.2-18.5,45.1-18.5h126.6v75.2h-94
				c-11.3,0-16.9,6.3-16.9,18.8v33.8h122.3v75.2H313.9v235.7h-79V273.2h-88.4V197.9z"/>
			<path class="st1" d="M145.9,197.2h88.4v-63.9c0-18,6.1-33.1,18.2-45.4c12.1-12.3,27.2-18.5,45.1-18.5h126.6v75.2h-94
				c-11.3,0-16.9,6.3-16.9,18.8v33.8h122.3v75.2H313.3v235.7h-79V272.4h-88.4V197.2z"/>
			<path class="st1" d="M145.4,196.5h88.4v-63.9c0-18,6.1-33.1,18.2-45.4C264,74.8,279.1,68.6,297,68.6h126.6v75.2h-94
				c-11.3,0-16.9,6.3-16.9,18.8v33.8h122.3v75.2H312.7v235.7h-79V271.7h-88.4V196.5z"/>
			<path class="st1" d="M144.8,195.8h88.4v-64c0-18,6.1-33.1,18.2-45.4c12.1-12.3,27.2-18.5,45.1-18.5h126.6v75.2h-94
				c-11.3,0-16.9,6.3-16.9,18.8v33.9h122.2V271H312.1v235.7h-79V271h-88.4V195.8z"/>
			<path class="st1" d="M144.2,195h88.4v-63.9c0-18,6.1-33.1,18.2-45.4c12.1-12.3,27.2-18.5,45.1-18.5h126.6v75.2h-94
				c-11.3,0-16.9,6.3-16.9,18.8V195h122.2v75.2H311.5v235.7h-79V270.2h-88.4V195z"/>
			<path class="st1" d="M143.6,194.3H232v-63.9c0-18,6.1-33.1,18.2-45.4c12.1-12.3,27.2-18.5,45.1-18.5h126.6v75.2h-94
				c-11.3,0-16.9,6.3-16.9,18.8v33.8h122.3v75.2H310.9v235.7h-79V269.5h-88.4V194.3z"/>
			<path class="st1" d="M143,193.6h88.4v-63.9c0-18,6.1-33.1,18.2-45.4s27.2-18.5,45.1-18.5h126.6v75.2h-94.1
				c-11.3,0-16.9,6.3-16.9,18.8v33.8h122.3v75.2H310.3v235.7h-79V268.8H143V193.6z"/>
			<path class="st1" d="M142.4,192.8h88.4v-63.9c0-18,6.1-33.1,18.2-45.4C261.1,71.1,276.1,65,294.1,65h126.6v75.2h-94
				c-11.3,0-16.9,6.3-16.9,18.8v33.8H432V268H309.7v235.7h-79V268.1h-88.4V192.8z"/>
			<path class="st1" d="M141.8,192.1h88.4v-63.9c0-18,6.1-33.1,18.2-45.4c12.1-12.3,27.2-18.5,45.1-18.5h126.6v75.2h-94
				c-11.3,0-16.9,6.3-16.9,18.8v33.9h122.3v75.2H309.1V503h-79V267.3h-88.4V192.1z"/>
			<path class="st1" d="M141.2,191.4h88.4v-63.9c0-18,6.1-33.1,18.2-45.4c12.1-12.3,27.2-18.5,45.1-18.5h126.6v75.2h-94
				c-11.3,0-16.9,6.3-16.9,18.8v33.8h122.3v75.2H308.6v235.7h-79V266.6h-88.4V191.4z"/>
			<path class="st1" d="M140.6,190.7H229v-64c0-18,6.1-33.1,18.2-45.4c12.1-12.3,27.2-18.5,45.1-18.5h126.6V138h-94
				c-11.3,0-16.9,6.3-16.9,18.8v33.8h122.3v75.2H308v235.7h-79V265.9h-88.4V190.7z"/>
			<path class="st1" d="M140,189.9h88.4V126c0-18,6.1-33.1,18.2-45.4c12.1-12.3,27.2-18.5,45.2-18.5h126.6v75.2h-94.1
				c-11.3,0-16.9,6.3-16.9,18.8v33.8h122.2v75.2H307.4v235.7h-79V265.2H140V189.9z"/>
			<path class="st1" d="M139.4,189.2h88.4v-63.9c0-18,6.1-33.1,18.2-45.4c12.1-12.3,27.2-18.5,45.1-18.5h126.6v75.2h-94
				c-11.3,0-16.9,6.3-16.9,18.8v33.8H429v75.2H306.8V500h-79V264.4h-88.4V189.2z"/>
			<path class="st1" d="M138.8,188.5h88.4v-63.9c0-18,6.1-33.1,18.2-45.4c12.1-12.3,27.2-18.5,45.1-18.5h126.6v75.2h-94
				c-11.3,0-16.9,6.3-16.9,18.8v33.8h122.2v75.2H306.2v235.7h-79V263.7h-88.4V188.5z"/>
			<path class="st1" d="M138.2,187.7h88.4v-63.9c0-18,6.1-33.1,18.2-45.4s27.2-18.5,45.1-18.5h126.6v75.2h-94
				c-11.3,0-16.9,6.3-16.9,18.8v33.8h122.2v75.2H305.6v235.7h-79V263h-88.4V187.7z"/>
			<path class="st1" d="M137.6,187H226v-63.9c0-18,6.1-33.1,18.2-45.4c12.1-12.3,27.2-18.5,45.1-18.5h126.6v75.2h-94
				c-11.3,0-16.9,6.3-16.9,18.8V187h122.3v75.2H305v235.7h-79V262.2h-88.4V187z"/>
			<path class="st1" d="M137,186.3h88.4v-63.9c0-18,6.1-33.1,18.2-45.4c12.1-12.3,27.2-18.5,45.1-18.5h126.6v75.2h-94
				c-11.3,0-16.9,6.3-16.9,18.8v33.8h122.3v75.2H304.4v235.7h-79V261.5H137V186.3z"/>
			<path class="st1" d="M136.5,185.6h88.4v-63.9c0-18,6.1-33.1,18.2-45.4c12.1-12.3,27.2-18.5,45.1-18.5h126.6v75.2h-94
				c-11.3,0-16.9,6.3-16.9,18.8v33.9H426v75.2H303.8v235.7h-79V260.8h-88.4V185.6z"/>
			<path class="st1" d="M135.8,184.8h88.4v-63.9c0-18,6.1-33.1,18.2-45.4C254.5,63.1,269.6,57,287.5,57h126.6v75.2h-94
				c-11.3,0-16.9,6.3-16.9,18.8v33.8h122.3V260H303.2v235.7h-79V260.1h-88.4V184.8z"/>
			<path class="st1" d="M135.2,184.1h88.4v-63.9c0-18,6.1-33.1,18.2-45.4c12.1-12.3,27.2-18.5,45.1-18.5h126.6v75.2h-94
				c-11.3,0-16.9,6.3-16.9,18.8v33.8h122.3v75.3H302.6V495h-79V259.3h-88.4V184.1z"/>
			<path class="st1" d="M134.6,183.4H223v-63.9c0-18,6.1-33.1,18.2-45.4c12.1-12.3,27.2-18.5,45.1-18.5h126.6v75.2h-94
				c-11.3,0-16.9,6.3-16.9,18.8v33.8h122.2v75.2H302v235.7h-79V258.6h-88.4V183.4z"/>
			<path class="st1" d="M134,182.7h88.4v-63.9c0-18,6.1-33.1,18.2-45.4c12.1-12.3,27.2-18.5,45.1-18.5h126.6V130h-94
				c-11.3,0-16.9,6.3-16.9,18.8v33.8h122.2v75.2H301.4v235.7h-79V257.9H134V182.7z"/>
			<path class="st1" d="M133.5,181.9h88.4V118c0-18,6.1-33.1,18.2-45.4c12.1-12.3,27.2-18.5,45.1-18.5h126.6v75.2h-94
				c-11.3,0-16.9,6.3-16.9,18.8v33.8H423v75.2H300.8v235.7h-79V257.1h-88.4V181.9z"/>
			<path class="st1" d="M132.9,181.2h88.4v-63.9c0-18,6.1-33.1,18.2-45.4c12.1-12.3,27.2-18.5,45.1-18.5h126.6v75.2h-94
				c-11.3,0-16.9,6.3-16.9,18.8v33.8h122.2v75.2H300.2v235.7h-79V256.4h-88.4V181.2z"/>
			<path class="st1" d="M132.3,180.5h88.4v-64c0-18,6.1-33.1,18.2-45.4C250.9,58.8,266,52.6,284,52.6h126.6v75.2h-94
				c-11.3,0-16.9,6.3-16.9,18.8v33.9h122.3v75.2H299.6v235.7h-79V255.7h-88.4V180.5z"/>
			<path class="st1" d="M131.7,179.7h88.4v-63.9c0-18,6.1-33.1,18.2-45.4s27.2-18.5,45.1-18.5H410v75.2h-94
				c-11.3,0-16.9,6.3-16.9,18.8v33.8h122.3V255H299.1v235.7h-79V255h-88.4V179.7z"/>
			<path class="st1" d="M131.1,179h88.4v-63.9c0-18,6.1-33.1,18.2-45.4s27.2-18.5,45.1-18.5h126.6v75.2h-94
				c-11.3,0-16.9,6.3-16.9,18.8V179h122.3v75.2H298.4v235.7h-79V254.2h-88.4V179z"/>
			<path class="st1" d="M130.5,178.3h88.4v-63.9c0-18,6.1-33.1,18.2-45.4c12.1-12.3,27.2-18.5,45.1-18.5h126.6v75.2h-94
				c-11.3,0-16.9,6.3-16.9,18.8v33.8h122.3v75.2H297.8v235.7h-79V253.5h-88.4V178.3z"/>
			<path class="st1" d="M129.9,177.6h88.4v-63.9c0-18,6.1-33.1,18.2-45.4c12.1-12.3,27.2-18.5,45.1-18.5h126.6v75.2h-94
				c-11.3,0-16.9,6.3-16.9,18.8v33.8h122.3v75.2H297.2v235.7h-79V252.8h-88.4V177.6z"/>
			<path class="st1" d="M129.3,176.8h88.4v-63.9c0-18,6.1-33.1,18.2-45.4C248,55.1,263,49,281,49h126.6v75.2h-94
				c-11.3,0-16.9,6.3-16.9,18.8v33.9h122.3V252H296.6v235.7h-79V252.1h-88.4V176.8z"/>
			<path class="st1" d="M128.7,176.1h88.4v-63.9c0-18,6.1-33.1,18.2-45.4c12.1-12.3,27.2-18.5,45.1-18.5H407v75.2h-94
				c-11.3,0-16.9,6.3-16.9,18.8v33.8h122.2v75.2H296.1V487h-79V251.3h-88.4V176.1z"/>
			<path class="st1" d="M128.1,175.4h88.4v-64c0-18,6.1-33.1,18.2-45.4c12.1-12.3,27.2-18.5,45.1-18.5h126.6v75.2h-94
				c-11.3,0-16.9,6.3-16.9,18.8v33.8h122.2v75.2H295.5v235.7h-79V250.6h-88.4V175.4z"/>
			<path class="st1" d="M127.5,174.6h88.4v-63.9c0-18,6.1-33.1,18.2-45.4c12.1-12.3,27.2-18.5,45.1-18.5h126.6V122h-94
				c-11.3,0-16.9,6.3-16.9,18.8v33.8h122.2v75.2H294.9v235.7h-79V249.9h-88.4V174.6z"/>
			<path class="st1" d="M126.9,173.9h88.4V110c0-18,6.1-33.1,18.2-45.4s27.2-18.5,45.1-18.5h126.6v75.2h-94
				c-11.3,0-16.9,6.3-16.9,18.8v33.8h122.2v75.2H294.3v235.7h-79V249.1h-88.4V173.9z"/>
			<path class="st1" d="M126.3,173.2h88.4v-63.9c0-18,6.1-33.1,18.2-45.4S260,45.3,278,45.3h126.6v75.2h-94
				c-11.3,0-16.9,6.3-16.9,18.8v33.8h122.3v75.2H293.7v235.7h-79V248.4h-88.4V173.2z"/>
			<path class="st1" d="M125.7,172.5h88.4v-63.9c0-18,6.1-33.1,18.2-45.4c12.1-12.3,27.2-18.5,45.1-18.5H404v75.2h-94
				c-11.3,0-16.9,6.3-16.9,18.8v33.8h122.3v75.2H293.1v235.7h-79V247.7h-88.4V172.5z"/>
			<path class="st1" d="M125.1,171.7h88.4v-63.9c0-18,6.1-33.1,18.2-45.4c12.1-12.3,27.2-18.5,45.1-18.5h126.6v75.2h-94
				c-11.3,0-16.9,6.3-16.9,18.8v33.8h122.3V247H292.5v235.7h-79V247h-88.4V171.7z"/>
			<path class="st1" d="M124.5,171h88.4v-63.9c0-18,6.1-33.1,18.2-45.4c12.1-12.3,27.2-18.5,45.1-18.5h126.6v75.2h-94
				c-11.3,0-16.9,6.3-16.9,18.8V171h122.3v75.2H291.9v235.7h-79V246.2h-88.4V171z"/>
			<path class="st1" d="M123.9,170.3h88.4v-63.9c0-18,6.1-33.1,18.2-45.4c12.1-12.3,27.2-18.5,45.1-18.5h126.6v75.2h-94
				c-11.3,0-16.9,6.3-16.9,18.8v33.9h122.3v75.2H291.3v235.7h-79V245.5h-88.4V170.3z"/>
			<path class="st1" d="M123.3,169.6h88.4v-63.9c0-18,6.1-33.1,18.2-45.4C242,47.8,257.1,41.7,275,41.7h126.6v75.2h-94
				c-11.3,0-16.9,6.3-16.9,18.8v33.8h122.2v75.2H290.7v235.7h-79V244.8h-88.4V169.6z"/>
			<path class="st1" d="M122.7,168.8h88.4v-63.9c0-18,6.1-33.1,18.2-45.4C241.4,47.1,256.5,41,274.4,41H401v75.2h-94
				c-11.3,0-16.9,6.3-16.9,18.8v33.8h122.3v75.3H290.1v235.7h-79V244.1h-88.4V168.8z"/>
			<path class="st1" d="M122.1,168.1h88.4v-63.9c0-18,6.1-33.1,18.2-45.4c12.1-12.3,27.2-18.5,45.1-18.5h126.6v75.2h-94
				c-11.3,0-16.9,6.3-16.9,18.8v33.8h122.2v75.2H289.5V479h-79V243.3h-88.4V168.1z"/>
			<path class="st1" d="M121.6,167.4h88.4v-63.9c0-18,6.1-33.1,18.2-45.4c12.1-12.3,27.2-18.5,45.1-18.5h126.6v75.2h-94
				c-11.3,0-16.9,6.3-16.9,18.8v33.8h122.2v75.2H288.9v235.7h-79V242.6h-88.4V167.4z"/>
			<path class="st1" d="M121,166.6h88.4v-63.9c0-18,6.1-33.1,18.2-45.4c12.1-12.3,27.2-18.5,45.1-18.5h126.6V114h-94
				c-11.3,0-16.9,6.3-16.9,18.8v33.8h122.3v75.2H288.3v235.7h-79V241.9H121V166.6z"/>
			<path class="st1" d="M120.4,165.9h88.4V102c0-18,6.1-33.1,18.2-45.4C239,44.2,254.1,38,272.1,38.1h126.6v75.2h-94
				c-11.3,0-16.9,6.3-16.9,18.8v33.8H410v75.2H287.7v235.7h-79V241.1h-88.4V165.9z"/>
			<path class="st1" d="M119.8,165.2h88.4v-64c0-18,6.1-33.1,18.2-45.4c12.1-12.3,27.2-18.5,45.1-18.5h126.6v75.2h-94
				c-11.3,0-16.9,6.3-16.9,18.8v33.9h122.3v75.2H287.1v235.7h-79V240.4h-88.4V165.2z"/>
			<path class="st1" d="M119.2,164.5h88.4v-63.9c0-18,6.1-33.1,18.2-45.4c12.1-12.3,27.2-18.5,45.1-18.5h126.6v75.2h-94
				c-11.3,0-16.9,6.3-16.9,18.8v33.8h122.3v75.2H286.5v235.7h-79V239.7h-88.4V164.5z"/>
			<path class="st1" d="M118.6,163.7H207V99.8c0-18,6.1-33.1,18.2-45.4c12.1-12.3,27.2-18.5,45.1-18.5h126.6v75.2h-94
				c-11.3,0-16.9,6.3-16.9,18.8v33.8h122.3v75.2H285.9v235.7h-79V239h-88.4V163.7z"/>
			<path class="st1" d="M118,163h88.4V99.1c0-18,6.1-33.1,18.2-45.4c12.1-12.3,27.2-18.5,45.1-18.5h126.6v75.2h-94
				c-11.3,0-16.9,6.3-16.9,18.8V163h122.2v75.2H285.3v235.7h-79V238.2H118V163z"/>
			<path class="st1" d="M117.4,162.3h88.4V98.3c0-18,6.1-33.1,18.2-45.4c12.1-12.3,27.2-18.5,45.2-18.5h126.6v75.2h-94
				c-11.3,0-16.9,6.3-16.9,18.8v33.8H407v75.2H284.7v235.7h-79V237.5h-88.4V162.3z"/>
			<path class="st1" d="M116.8,161.5h88.4V97.6c0-18,6.1-33.1,18.2-45.4c12.1-12.3,27.2-18.5,45.1-18.5h126.6v75.2h-94
				c-11.3,0-16.9,6.3-16.9,18.8v33.9h122.2v75.2H284.1v235.7h-79V236.8h-88.4V161.5z"/>
			<path class="st1" d="M116.2,160.8h88.4V96.9c0-18,6.1-33.1,18.2-45.4C234.9,39.1,249.9,33,267.9,33h126.6v75.2h-94
				c-11.3,0-16.9,6.3-16.9,18.8v33.8h122.2V236H283.6v235.7h-79V236h-88.4V160.8z"/>
			<path class="st1" d="M115.6,160.1H204V96.2c0-18,6.1-33.1,18.2-45.4c12.1-12.3,27.2-18.5,45.1-18.5h126.6v75.2h-94
				c-11.3,0-16.9,6.3-16.9,18.8v33.8h122.2v75.2H283v235.7h-79V235.3h-88.4V160.1z"/>
			<path class="st1" d="M115,159.4h88.4V95.4c0-18,6.1-33.1,18.2-45.4c12.1-12.3,27.2-18.5,45.1-18.5h126.6v75.2h-94
				c-11.3,0-16.9,6.3-16.9,18.8v33.8h122.3v75.2H282.4v235.7h-79V234.6H115V159.4z"/>
			<path class="st1" d="M114.4,158.6h88.4V94.7c0-18,6.1-33.1,18.2-45.4c12.1-12.3,27.2-18.5,45.1-18.5h126.6V106h-94
				c-11.3,0-16.9,6.3-16.9,18.8v33.8H404v75.2H281.8v235.7h-79V233.9h-88.4V158.6z"/>
			<path class="st1" d="M113.8,157.9h88.4V94c0-18,6.1-33.1,18.2-45.4C232.5,36.2,247.5,30,265.5,30h126.6v75.2h-94
				c-11.3,0-16.9,6.3-16.9,18.8v33.8h122.3v75.2H281.2v235.7h-79V233.1h-88.4V157.9z"/>
			<path class="st1" d="M113.2,157.2h88.4V93.3c0-18,6.1-33.1,18.2-45.4c12.1-12.3,27.2-18.5,45.1-18.5h126.6v75.2h-94
				c-11.3,0-16.9,6.3-16.9,18.8v33.8h122.3v75.2H280.6v235.7h-79V232.4h-88.4V157.2z"/>
			<path class="st1" d="M112.6,156.5H201V92.5c0-18,6.1-33.1,18.2-45.4c12.1-12.3,27.2-18.5,45.1-18.5h126.6v75.2h-94
				c-11.3,0-16.9,6.3-16.9,18.8v33.8h122.3v75.2H280v235.7h-79V231.7h-88.4V156.5z"/>
			<path class="st1" d="M112,155.7h88.4V91.8c0-18,6.1-33.1,18.2-45.4c12.1-12.3,27.2-18.5,45.1-18.5h126.6v75.2h-94
				c-11.3,0-16.9,6.3-16.9,18.8v33.8h122.2v75.2H279.4v235.7h-79V230.9H112V155.7z"/>
			<path class="st1" d="M111.4,155h88.4V91.1c0-18,6.1-33.1,18.2-45.4c12.1-12.3,27.2-18.5,45.1-18.5h126.6v75.2h-94
				c-11.3,0-16.9,6.3-16.9,18.8V155H401v75.2H278.8v235.7h-79V230.2h-88.4V155z"/>
			<path class="st1" d="M110.8,154.3h88.4V90.3c0-18,6.1-33.1,18.2-45.4c12.1-12.3,27.2-18.5,45.1-18.5h126.6v75.2h-94
				c-11.3,0-16.9,6.3-16.9,18.8v33.8h122.2v75.2H278.2v235.7h-79V229.5h-88.4V154.3z"/>
			<path class="st1" d="M110.2,153.5h88.4V89.6c0-18,6.1-33.1,18.2-45.4c12.1-12.3,27.2-18.5,45.1-18.5h126.6v75.2h-94
				c-11.3,0-16.9,6.3-16.9,18.8v33.8h122.2v75.3H277.6v235.7h-79V228.8h-88.4V153.5z"/>
			<path class="st1" d="M109.6,152.8H198V88.9c0-18,6.1-33.1,18.2-45.4c12.1-12.3,27.2-18.5,45.1-18.5H388v75.2h-94
				c-11.3,0-16.9,6.3-16.9,18.8v33.8h122.3V228H277v235.7h-79V228h-88.4V152.8z"/>
			<path class="st1" d="M109.1,152.1h88.4V88.2c0-18,6.1-33.1,18.2-45.4c12.1-12.3,27.2-18.5,45.1-18.5h126.6v75.2h-94
				c-11.3,0-16.9,6.3-16.9,18.8v33.8h122.3v75.2H276.4V463h-79V227.3h-88.4V152.1z"/>
			<path class="st1" d="M108.5,151.4h88.4V87.4c0-18,6.1-33.1,18.2-45.4c12.1-12.3,27.2-18.5,45.1-18.5h126.6v75.2h-94
				c-11.3,0-16.9,6.3-16.9,18.8v33.8h122.3v75.2H275.8v235.7h-79V226.6h-88.4V151.4z"/>
			<path class="st1" d="M107.9,150.6h88.4V86.7c0-18,6.1-33.1,18.2-45.4c12.1-12.3,27.2-18.5,45.1-18.5h126.6V98h-94
				c-11.3,0-16.9,6.3-16.9,18.8v33.8h122.3v75.2H275.2v235.7h-79V225.9h-88.4V150.6z"/>
			<path class="st1" d="M107.3,149.9h88.4V86c0-18,6.1-33.1,18.2-45.4C225.9,28.2,241,22,259,22h126.6v75.2h-94
				c-11.3,0-17,6.3-17,18.8v33.9h122.3v75.2H274.6v235.7h-79V225.1h-88.4V149.9z"/>
			<path class="st1" d="M106.7,149.2h88.4V85.2c0-18,6.1-33.1,18.2-45.4c12.1-12.3,27.2-18.5,45.1-18.5H385v75.2h-94
				c-11.3,0-16.9,6.3-16.9,18.8v33.8h122.2v75.2H274v235.7h-79V224.4h-88.4V149.2z"/>
			<path class="st1" d="M106.1,148.5h88.4V84.5c0-18,6.1-33.1,18.2-45.4c12.1-12.3,27.2-18.5,45.1-18.5h126.6v75.2h-94
				c-11.3,0-16.9,6.3-16.9,18.8v33.8h122.3v75.2H273.4v235.7h-79V223.7h-88.4V148.5z"/>
			<path class="st1" d="M105.5,147.7h88.4V83.8c0-18,6.1-33.1,18.2-45.4c12.1-12.3,27.2-18.5,45.1-18.5h126.6V95h-94
				c-11.3,0-16.9,6.3-16.9,18.8v33.9h122.2v75.2H272.8v235.7h-79V222.9h-88.4V147.7z"/>
			<path class="st1" d="M104.9,147h88.4V83.1c0-18,6.1-33.1,18.2-45.4c12.1-12.3,27.1-18.5,45.1-18.5h126.6v75.2h-94
				c-11.3,0-16.9,6.3-16.9,18.8V147h122.2v75.2H272.2v235.7h-78.9V222.2h-88.4V147z"/>
			<path class="st1" d="M104.3,146.3h88.4V82.3c0-18,6.1-33.1,18.2-45.4C223,24.6,238,18.4,256,18.4h126.6v75.2h-94
				c-11.3,0-16.9,6.3-16.9,18.8v33.8h122.2v75.2H271.6v235.7h-79V221.5h-88.4V146.3z"/>
			<path class="st1" d="M103.7,145.5h88.4V81.6c0-18,6.1-33.1,18.2-45.4c12.1-12.3,27.2-18.5,45.1-18.5H382v75.2h-94
				c-11.3,0-16.9,6.3-16.9,18.8v33.8h122.3v75.2H271.1v235.7h-79V220.8h-88.4V145.5z"/>
			<path class="st1" d="M103.1,144.8h88.4V80.9c0-18,6.1-33.1,18.2-45.4c12.1-12.3,27.2-18.5,45.1-18.5h126.6v75.2h-94
				c-11.3,0-16.9,6.3-16.9,18.8v33.8h122.3V220H270.5v235.7h-79V220h-88.4V144.8z"/>
			<path class="st1" d="M102.5,144.1h88.4V80.2c0-18,6.1-33.1,18.2-45.4c12.1-12.3,27.2-18.5,45.1-18.5h126.6v75.2h-94
				c-11.3,0-16.9,6.3-16.9,18.8v33.8h122.3v75.2H269.9V455h-79V219.3h-88.4V144.1z"/>
			<path class="st1" d="M101.9,143.4h88.4V79.4c0-18,6.1-33.1,18.2-45.4c12.1-12.3,27.2-18.5,45.1-18.5h126.6v75.2h-94
				c-11.3,0-16.9,6.3-16.9,18.8v33.8h122.3v75.2H269.3v235.7h-79V218.6h-88.4V143.4z"/>
			<path class="st1" d="M101.3,142.6h88.4V78.7c0-18,6.1-33.1,18.2-45.4C220,20.9,235,14.8,253,14.8h126.6V90h-94
				c-11.3,0-16.9,6.3-16.9,18.8v33.8h122.3v75.2H268.7v235.7h-79V217.8h-88.4V142.6z"/>
			<path class="st1" d="M100.7,141.9h88.4V78c0-18,6.1-33.1,18.2-45.4C219.4,20.2,234.4,14,252.4,14H379v75.2h-94
				c-11.3,0-16.9,6.3-16.9,18.8v33.8h122.2v75.2H268.1v235.7h-79V217.1h-88.4V141.9z"/>
			<path class="st1" d="M100.1,141.2h88.4V77.2c0-18,6.1-33.1,18.2-45.4c12.1-12.3,27.2-18.5,45.1-18.5h126.6v75.2h-94
				c-11.3,0-16.9,6.3-16.9,18.8v33.8h122.2v75.2H267.5V452h-79V216.4h-88.4V141.2z"/>
			<path class="st1" d="M99.5,140.5h88.4V76.5c0-18,6.1-33.1,18.2-45.4c12.1-12.3,27.2-18.5,45.1-18.5h126.6v75.2h-94
				c-11.3,0-16.9,6.3-16.9,18.8v33.9h122.3v75.2H266.9v235.7h-79V215.7H99.5V140.5z"/>
			<path class="st1" d="M98.9,139.7h88.4V75.8c0-18,6.1-33.1,18.2-45.4s27.2-18.5,45.1-18.5h126.6V87h-94
				c-11.3,0-16.9,6.3-16.9,18.8v33.9h122.2v75.2H266.3v235.7h-79V214.9H98.9V139.7z"/>
			<path class="st1" d="M98.3,139h88.4V75.1c0-18,6.1-33.1,18.2-45.4s27.2-18.5,45.1-18.5h126.6v75.2h-94
				c-11.3,0-16.9,6.3-16.9,18.8V139H388v75.2H265.7v235.7h-79V214.2H98.3V139z"/>
			<path class="st1" d="M97.7,138.3h88.4V74.3c0-18,6.1-33.1,18.2-45.4c12.1-12.3,27.2-18.5,45.1-18.5h126.6v75.2h-94
				c-11.3,0-16.9,6.3-16.9,18.8v33.8h122.3v75.3H265.1v235.7h-79V213.5H97.7V138.3z"/>
			<path class="st1" d="M97.2,137.5h88.4V73.6c0-18,6.1-33.1,18.2-45.4c12.1-12.3,27.2-18.5,45.1-18.5h126.6v75.2h-94
				c-11.3,0-16.9,6.3-16.9,18.8v33.8h122.3v75.2H264.5v235.7h-79V212.8H97.2V137.5z"/>
			<path class="st1" d="M96.6,136.8h88.4V72.9c0-18,6.1-33.1,18.2-45.4C215.2,15.1,230.3,9,248.2,9h126.6v75.2h-94
				c-11.3,0-16.9,6.3-16.9,18.8v33.8h122.3V212H263.9v235.7h-79V212H96.6V136.8z"/>
			<path class="st1" d="M96,136.1h88.4V72.1c0-18,6.1-33.1,18.2-45.4c12.1-12.3,27.2-18.5,45.1-18.5h126.6v75.2h-94
				c-11.3,0-16.9,6.3-16.9,18.8v33.8h122.3v75.2H263.3V447h-79V211.3H96V136.1z"/>
			<path class="st1" d="M95.4,135.4h88.4V71.4c0-18,6.1-33.1,18.2-45.4C214,13.6,229.1,7.5,247.1,7.5h126.6v75.2h-94
				c-11.3,0-16.9,6.3-16.9,18.8v33.8H385v75.2H262.7v235.7h-79V210.6H95.4V135.4z"/>
		</g>
		<path class="st2" d="M95.4,135.4h88.4V71.4c0-18,6.1-33.1,18.2-45.4C214,13.6,229.1,7.5,247.1,7.5h126.6v75.2h-94
			c-11.3,0-16.9,6.3-16.9,18.8v33.8H385v75.2H262.7v235.7h-79V210.6H95.4V135.4z"/>
		<path class="st3" d="M95.4,135.4h88.4V71.4c0-18,6.1-33.1,18.2-45.4C214,13.6,229.1,7.5,247.1,7.5h126.6v75.2h-94
			c-11.3,0-16.9,6.3-16.9,18.8v33.8H385v75.2H262.7v235.7h-79V210.6H95.4V135.4z"/>
	</g>
	<rect x="135" y="195.7" class="st3" width="330" height="85.7"/>
	<rect x="235.9" y="50" class="st3" width="229.1" height="85.7"/>
	<rect x="235.9" y="341.4" class="st3" width="89.8" height="208.6"/>
	<rect x="350.5" y="341.4" class="st4" width="114.6" height="22.3"/>
	<text transform="matrix(1 0 0 1 390.4544 351.2123)" class="st3 st5 st6 st7">fvacotti</text>
</g>
<g id="Capa_2">
	<rect class="st8" width="600" height="600"/>
	<rect x="140" y="200" class="st9" width="320" height="80"/>
	<path class="st9" d="M320,60h140v80H240v0C240,95.8,275.8,60,320,60z"/>
	<rect x="240" y="340" class="st9" width="80" height="200"/>
</g>
</svg>
